<?xml version="1.0" encoding="utf-8"?>
<!-- Generator: Adobe Illustrator 21.0.0, SVG Export Plug-In . SVG Version: 6.00 Build 0)  -->
<svg version="1.1" id="Layer_1" xmlns="http://www.w3.org/2000/svg" xmlns:xlink="http://www.w3.org/1999/xlink" x="0px" y="0px"
	 viewBox="0 0 2304 1792" style="enable-background:new 0 0 2304 1792;" xml:space="preserve">
<path d="M762,1152H448c-26.7,0-45.8-11.7-57.5-35c-11.7-23.3-9.5-45.7,6.5-67l188-251c-43.3-20.7-89-31-137-31
	c-88,0-163.3,31.3-226,94s-94,138-94,226s31.3,163.3,94,226s138,94,226,94c76.7,0,144.3-24.2,203-72.5S746.7,1226,762,1152z
	 M576,1024h186c-12-56.7-37-106-75-148L576,1024z M1056,1024l288-384H864l-99,132c70,68.7,112,152.7,126,252H1056z M2176,1088
	c0-88-31.3-163.3-94-226c-62.7-62.7-138-94-226-94c-40,0-80.3,8-121,24l174,260c10,15.3,13.3,31.7,10,49s-12.3,30.7-27,40
	c-10,7.3-22,11-36,11c-23.3,0-41-9.7-53-29l-174-260c-62,63.3-93,138.3-93,225c0,88,31.3,163.3,94,226s138,94,226,94
	s163.3-31.3,226-94C2144.7,1251.3,2176,1176,2176,1088z M2304,1088c0,123.3-43.8,228.8-131.5,316.5S1979.3,1536,1856,1536
	s-228.8-43.8-316.5-131.5S1408,1211.3,1408,1088c0-64.7,13.2-125.8,39.5-183.5S1510.3,797,1557,755l-65-98l-353,469
	c-12,17.3-29,26-51,26H891c-15.3,109.3-65,200.7-149,274s-182,110-294,110c-123.3,0-228.8-43.8-316.5-131.5S0,1211.3,0,1088
	s43.8-228.8,131.5-316.5S324.7,640,448,640c76,0,147.7,18.3,215,55l137-183H576c-17.3,0-32.3-6.3-45-19s-19-27.7-19-45
	s6.3-32.3,19-45s27.7-19,45-19h384v128h435l-85-128h-222c-17.3,0-32.3-6.3-45-19s-19-27.7-19-45s6.3-32.3,19-45s27.7-19,45-19h256
	c22,0,39.7,9.3,53,28l267,400c60.7-29.3,124.7-44,192-44c123.3,0,228.8,43.8,316.5,131.5S2304,964.7,2304,1088z"/>
</svg>
