<?xml version="1.0" encoding="iso-8859-1"?>
<!-- Generator: Adobe Illustrator 19.0.0, SVG Export Plug-In . SVG Version: 6.00 Build 0)  -->
<svg version="1.1" id="Layer_1" xmlns="http://www.w3.org/2000/svg" xmlns:xlink="http://www.w3.org/1999/xlink" x="0px" y="0px"
	 viewBox="0 0 512 512" style="enable-background:new 0 0 512 512;" xml:space="preserve">
<g>
	<g>
		<path d="M495.304,0H16.696C7.479,0,0,7.473,0,16.696v478.609C0,504.527,7.479,512,16.696,512h478.609
			c9.217,0,16.696-7.473,16.696-16.696V16.696C512,7.473,504.521,0,495.304,0z M128.673,277.587
			c3.131,3.13,4.892,7.375,4.892,11.804v116.87c0,3.071,2.5,5.565,5.565,5.565h44.522c9.217,0,16.696,7.473,16.696,16.696
			c0,9.223-7.479,16.696-16.696,16.696H139.13c-21.478,0-38.956-17.478-38.956-38.957V296.304l-28.5-28.5
			c-6.521-6.516-6.521-17.092,0-23.609l28.5-28.501V105.739c0-21.478,17.478-38.957,38.956-38.957h44.522
			c9.217,0,16.696,7.473,16.696,16.696s-7.479,16.696-16.696,16.696H139.13c-3.065,0-5.565,2.494-5.565,5.565v116.87
			c0,4.429-1.761,8.674-4.892,11.804L107.087,256L128.673,277.587z M440.326,267.804l-28.499,28.501v109.956
			c0,21.478-17.478,38.957-38.957,38.957h-44.522c-9.217,0-16.696-7.473-16.696-16.696c0-9.223,7.479-16.696,16.696-16.696h44.522
			c3.065,0,5.565-2.494,5.565-5.565v-116.87c0-4.429,1.761-8.674,4.892-11.804L404.913,256l-21.587-21.587
			c-3.13-3.13-4.891-7.375-4.891-11.804v-116.87c0-3.071-2.5-5.565-5.565-5.565h-44.522c-9.217,0-16.696-7.473-16.696-16.696
			s7.479-16.696,16.696-16.696h44.522c21.478,0,38.957,17.478,38.957,38.957v109.956l28.499,28.499
			C446.848,250.712,446.848,261.288,440.326,267.804z"/>
	</g>
</g>
<g>
</g>
<g>
</g>
<g>
</g>
<g>
</g>
<g>
</g>
<g>
</g>
<g>
</g>
<g>
</g>
<g>
</g>
<g>
</g>
<g>
</g>
<g>
</g>
<g>
</g>
<g>
</g>
<g>
</g>
</svg>
