<?xml version="1.0" encoding="iso-8859-1"?>
<!-- Generator: Adobe Illustrator 17.1.0, SVG Export Plug-In . SVG Version: 6.00 Build 0)  -->
<!DOCTYPE svg PUBLIC "-//W3C//DTD SVG 1.1//EN" "http://www.w3.org/Graphics/SVG/1.1/DTD/svg11.dtd">
<svg version="1.1" id="Capa_1" xmlns="http://www.w3.org/2000/svg" xmlns:xlink="http://www.w3.org/1999/xlink" x="0px" y="0px"
	 viewBox="0 0 201.452 201.452" style="enable-background:new 0 0 201.452 201.452;" xml:space="preserve">
<path d="M188.85,121.693c0.248,1.112,0.376,2.259,0.376,3.426c0,5.714-3.156,10.846-7.895,13.578
	c0.805,1.904,1.228,3.967,1.228,6.088c0,6.749-4.289,12.514-10.284,14.713c0.188,0.971,0.284,1.959,0.284,2.953
	c0,6.78-4.332,12.562-10.371,14.738c-4.47-3.893-9.061-8.62-11.076-12.235c-0.051-0.119-0.088-0.241-0.151-0.356
	c-0.037-0.068-0.117-0.202-0.221-0.367c-0.412-0.863-0.657-1.649-0.683-2.326c-0.216-5.61,4.962-12.005,6.97-13.99
	c1.578-1.546,1.603-4.079,0.056-5.657c-1.547-1.577-4.08-1.603-5.657-0.056c-0.339,0.333-7.174,7.128-8.952,15.509
	c-1.47-0.602-3.152-1.108-5.09-1.431c-9.814-1.636-17.383,5.211-17.701,5.503c-1.618,1.491-1.72,4-0.239,5.627
	c1.482,1.627,4.007,1.744,5.643,0.273c0.049-0.045,5.072-4.5,10.982-3.512c5.707,0.951,7.77,4.107,7.917,4.343
	c0.065,0.113,0.14,0.217,0.214,0.321c2.887,5.208,8.148,10.412,12.362,14.085c-2.225,5.947-7.954,10.198-14.668,10.198
	c-1.635,0-3.253-0.259-4.794-0.755c-2.495,5.382-7.949,9.088-14.206,9.088c-8.639,0-15.667-7.028-15.667-15.667
	c0-0.014,0-0.029,0-0.044c0-0.018,0-0.036,0-0.053v-73.917c2.938,1.614,6.886,3.453,10.607,4.151
	c1.488,3.202,3.643,8.636,3.643,12.303c0,2.209,1.791,4,4,4s4-1.791,4-4c0-4.468-1.846-9.772-3.402-13.453
	c4.69-2.25,7.914-5.645,8.07-5.811c1.511-1.612,1.43-4.143-0.182-5.654c-1.613-1.511-4.143-1.429-5.654,0.182
	c-0.031,0.033-3.185,3.315-7.218,4.704c-0.093,0.031-0.205,0.05-0.326,0.062c-0.209-0.015-0.419-0.026-0.63-0.008
	c-2.467-0.224-7.825-2.533-12.236-5.381c-0.216-0.14-0.442-0.251-0.672-0.344v-29.4c5.113-0.726,12.577-2.889,16.625-9.249
	c1.186-1.864,0.637-4.336-1.227-5.522c-1.863-1.186-4.336-0.637-5.522,1.227c-2.064,3.244-6.278,4.784-9.875,5.453V17.914
	c0-0.26,0.025-0.514,0.073-0.761c-0.048-0.499-0.073-0.995-0.073-1.487C107.226,7.028,114.254,0,122.893,0
	c4.487,0,8.682,1.899,11.629,5.177c0.013,0,0.025,0,0.038,0c5.26,0,9.931,2.599,12.773,6.608c-2.941,2.976-6.733,7.09-9.181,10.783
	c-2.866-0.788-7.142-1.41-11.895-0.222c-2.143,0.536-3.446,2.708-2.91,4.851c0.536,2.143,2.708,3.448,4.851,2.91
	c2.836-0.708,5.444-0.409,7.281,0.031c0.064,2.717,1.203,5.178,2.322,7.583c1.542,3.314,3.29,7.072,3.178,12.929
	c-0.042,2.209,1.713,4.034,3.922,4.076c0.026,0.001,0.053,0.001,0.079,0.001c2.173,0,3.956-1.741,3.998-3.923
	c0.148-7.708-2.205-12.765-3.922-16.458c-1.409-3.029-1.859-4.19-1.384-5.331c1.198-2.876,5.78-8.015,9.794-12.048
	c5.97,2.126,10.287,7.765,10.427,14.423c8.534,0.123,15.438,7.103,15.438,15.666c0,2.231-0.469,4.396-1.351,6.375
	c5.449,2.456,9.25,7.938,9.25,14.292c0,1.052-0.107,2.089-0.309,3.099c-4.114,1.609-10.872,3.906-14.941,3.906
	c-3.465,0-6.321-5.011-7.043-6.753c-0.83-2.047-3.161-3.035-5.21-2.204c-2.047,0.83-3.034,3.163-2.204,5.21
	c0.122,0.301,2.014,4.857,5.778,8.205c-0.066,0.059-0.135,0.116-0.199,0.176c-2.662,2.471-5.104,6.828-5.374,7.316
	c-1.067,1.934-0.365,4.368,1.569,5.435c0.613,0.338,1.276,0.499,1.93,0.499c1.409,0,2.776-0.747,3.505-2.068
	c0.523-0.947,2.345-3.958,3.813-5.32c1.045-0.97,2.964-1.961,4.264-2.516c4.742-0.207,10.761-2.103,14.932-3.636
	c0.962,2.048,1.489,4.307,1.489,6.652c0,3.231-1.011,6.351-2.822,8.949c2.879,2.896,4.589,6.864,4.589,11.051
	c0,2.861-0.791,5.594-2.193,7.965c-4.063-0.115-12.957-0.565-19.253-2.314c-2.129-0.593-4.333,0.655-4.925,2.783
	c-0.591,2.129,0.655,4.333,2.783,4.925C174.729,121.114,184.566,121.584,188.85,121.693z M94.226,111.772
	c-2.937,1.614-6.884,3.452-10.605,4.151c-1.488,3.209-3.645,8.654-3.645,12.304c0,2.209-1.791,4-4,4s-4-1.791-4-4
	c0-4.468,1.846-9.772,3.402-13.453c-4.69-2.25-7.914-5.645-8.07-5.811c-1.511-1.612-1.43-4.143,0.182-5.654
	c1.612-1.511,4.144-1.429,5.654,0.182c0.022,0.023,3.182,3.314,7.218,4.704c0.092,0.031,0.203,0.049,0.323,0.062
	c0.211-0.016,0.424-0.025,0.637-0.007c2.469-0.225,7.829-2.531,12.23-5.38c0.217-0.14,0.443-0.252,0.674-0.346v-29.4
	c-5.113-0.726-12.577-2.889-16.625-9.249c-1.186-1.864-0.637-4.336,1.227-5.522c1.864-1.187,4.336-0.637,5.522,1.227
	c2.064,3.243,6.279,4.781,9.875,5.45V17.914c0-0.26-0.025-0.514-0.073-0.761c0.048-0.499,0.073-0.995,0.073-1.487
	C94.226,7.028,87.198,0,78.56,0c-4.487,0-8.682,1.899-11.629,5.177c-0.013,0-0.025,0-0.038,0c-5.26,0-9.931,2.599-12.773,6.608
	c2.941,2.976,6.732,7.089,9.18,10.782c2.865-0.788,7.141-1.411,11.896-0.221c2.143,0.536,3.446,2.708,2.91,4.851
	c-0.536,2.144-2.708,3.448-4.851,2.91c-2.853-0.713-5.454-0.417-7.281,0.021c-0.062,2.721-1.202,5.185-2.322,7.592
	c-1.542,3.314-3.29,7.072-3.178,12.929c0.042,2.209-1.713,4.034-3.922,4.076c-0.026,0.001-0.053,0.001-0.079,0.001
	c-2.173,0-3.956-1.741-3.998-3.923c-0.148-7.708,2.205-12.765,3.922-16.458c1.409-3.029,1.859-4.19,1.384-5.331
	c-1.201-2.881-5.781-8.018-9.793-12.049c-5.97,2.125-10.289,7.765-10.428,14.423c-8.534,0.123-15.438,7.103-15.438,15.666
	c0,2.231,0.469,4.396,1.351,6.375c-5.449,2.456-9.25,7.938-9.25,14.292c0,1.052,0.107,2.088,0.309,3.098
	c4.119,1.61,10.884,3.907,14.941,3.907c3.465,0,6.321-5.011,7.049-6.767c0.844-2.036,3.178-3.014,5.215-2.177
	c2.039,0.835,3.021,3.155,2.193,5.197c-0.122,0.301-2.014,4.857-5.778,8.205c0.066,0.059,0.135,0.116,0.199,0.176
	c2.661,2.471,5.104,6.828,5.374,7.316c1.067,1.934,0.365,4.368-1.569,5.435c-0.613,0.338-1.276,0.499-1.93,0.499
	c-1.409,0-2.776-0.747-3.505-2.068c-0.784-1.415-2.514-4.113-3.813-5.32c-1.045-0.971-2.965-1.961-4.264-2.516
	c-4.742-0.207-10.761-2.103-14.932-3.636c-0.962,2.048-1.489,4.307-1.489,6.652c0,3.231,1.011,6.351,2.822,8.949
	c-2.879,2.896-4.589,6.864-4.589,11.051c0,2.861,0.791,5.594,2.193,7.965c4.063-0.115,12.957-0.565,19.253-2.314
	c2.129-0.59,4.334,0.654,4.925,2.783c0.591,2.129-0.655,4.333-2.783,4.925c-7.323,2.034-17.161,2.504-21.445,2.613
	c-0.248,1.112-0.376,2.259-0.376,3.426c0,5.714,3.156,10.846,7.895,13.578c-0.805,1.904-1.228,3.967-1.228,6.088
	c0,6.749,4.289,12.514,10.284,14.713c-0.188,0.97-0.284,1.959-0.284,2.953c0,6.779,4.331,12.559,10.368,14.737
	c4.479-3.903,9.078-8.641,11.089-12.255c0.049-0.111,0.083-0.226,0.142-0.334c0.037-0.067,0.114-0.197,0.214-0.357
	c0.416-0.867,0.664-1.658,0.69-2.336c0.258-6.709-6.897-13.919-6.97-13.99c-1.578-1.546-1.603-4.079-0.056-5.657
	c1.546-1.577,4.079-1.602,5.657-0.056c0.339,0.333,7.174,7.128,8.952,15.509c1.47-0.602,3.152-1.108,5.09-1.431
	c9.819-1.639,17.384,5.211,17.701,5.503c1.625,1.497,1.729,4.027,0.232,5.652c-1.497,1.625-4.027,1.729-5.652,0.232
	c-0.033-0.03-5.055-4.482-10.966-3.497c-5.804,0.967-7.838,4.214-7.922,4.352c-0.075,0.137-0.161,0.264-0.25,0.389
	c-2.896,5.183-8.127,10.354-12.32,14.009c2.225,5.947,7.954,10.198,14.668,10.198c1.635,0,3.253-0.259,4.794-0.755
	c2.495,5.382,7.949,9.088,14.206,9.088c8.639,0,15.667-7.028,15.667-15.667c0-0.014,0-0.028,0-0.043c0-0.018,0-0.036,0-0.054
	V111.772z"/>
<g>
</g>
<g>
</g>
<g>
</g>
<g>
</g>
<g>
</g>
<g>
</g>
<g>
</g>
<g>
</g>
<g>
</g>
<g>
</g>
<g>
</g>
<g>
</g>
<g>
</g>
<g>
</g>
<g>
</g>
</svg>
