<?xml version="1.0" encoding="iso-8859-1"?>
<!-- Generator: Adobe Illustrator 19.0.0, SVG Export Plug-In . SVG Version: 6.00 Build 0)  -->
<svg version="1.1" id="Layer_1" xmlns="http://www.w3.org/2000/svg" xmlns:xlink="http://www.w3.org/1999/xlink" x="0px" y="0px"
	 viewBox="0 0 512 512" style="enable-background:new 0 0 512 512;" xml:space="preserve">
<g>
	<g>
		<g>
			<path d="M426.667,0H85.333c-14.114,0-25.6,11.486-25.6,25.6v460.8c0,14.114,11.486,25.6,25.6,25.6h341.333
				c14.114,0,25.6-11.486,25.6-25.6V25.6C452.267,11.486,440.781,0,426.667,0z M249.941,70.741c3.243-3.157,8.875-3.157,12.117,0
				c0.768,0.853,1.365,1.792,1.792,2.816c0.427,1.024,0.683,2.133,0.683,3.243c0,2.304-0.853,4.437-2.475,6.059
				c-1.621,1.613-3.755,2.475-6.059,2.475c-1.109,0-2.219-0.256-3.243-0.683c-1.024-0.427-1.963-1.024-2.816-1.792
				c-1.621-1.621-2.475-3.755-2.475-6.059C247.467,74.581,248.405,72.354,249.941,70.741z M213.333,68.267h8.533
				c4.71,0,8.533,3.814,8.533,8.533s-3.823,8.533-8.533,8.533h-8.533c-4.71,0-8.533-3.814-8.533-8.533
				S208.623,68.267,213.333,68.267z M213.333,102.4H256c4.71,0,8.533,3.814,8.533,8.533s-3.823,8.533-8.533,8.533h-42.667
				c-4.71,0-8.533-3.814-8.533-8.533S208.623,102.4,213.333,102.4z M264.533,145.067c0,2.304-0.853,4.437-2.475,5.973
				c-1.621,1.698-3.755,2.56-6.059,2.56c-2.304,0-4.437-0.862-6.059-2.56c-1.621-1.536-2.475-3.669-2.475-5.973
				c0-1.109,0.256-2.219,0.683-3.243c0.427-1.024,1.024-1.963,1.792-2.816c3.243-3.157,8.875-3.157,12.117,0
				c0.768,0.853,1.365,1.792,1.792,2.816C264.277,142.848,264.533,143.957,264.533,145.067z M213.333,136.533h8.533
				c4.71,0,8.533,3.814,8.533,8.533s-3.823,8.533-8.533,8.533h-8.533c-4.71,0-8.533-3.814-8.533-8.533
				S208.623,136.533,213.333,136.533z M213.333,170.667H256c4.71,0,8.533,3.814,8.533,8.533s-3.823,8.533-8.533,8.533h-42.667
				c-4.71,0-8.533-3.814-8.533-8.533S208.623,170.667,213.333,170.667z M119.467,68.267H179.2c4.71,0,8.533,3.814,8.533,8.533
				s-3.823,8.533-8.533,8.533h-59.733c-4.71,0-8.533-3.814-8.533-8.533S114.756,68.267,119.467,68.267z M119.467,136.533H179.2
				c4.71,0,8.533,3.814,8.533,8.533s-3.823,8.533-8.533,8.533h-59.733c-4.71,0-8.533-3.814-8.533-8.533
				S114.756,136.533,119.467,136.533z M162.133,401.067h-42.667c-4.71,0-8.533-3.814-8.533-8.533c0-4.719,3.823-8.533,8.533-8.533
				h42.667c4.71,0,8.533,3.814,8.533,8.533C170.667,397.252,166.844,401.067,162.133,401.067z M204.8,401.067h-8.533
				c-4.71,0-8.533-3.814-8.533-8.533c0-4.719,3.823-8.533,8.533-8.533h8.533c4.71,0,8.533,3.814,8.533,8.533
				C213.333,397.252,209.51,401.067,204.8,401.067z M272.384,429.909c-0.427,1.024-1.024,1.954-1.792,2.816
				c-1.621,1.613-3.755,2.475-6.059,2.475c-1.109,0-2.219-0.256-3.243-0.683c-1.024-0.427-1.963-1.024-2.816-1.792
				c-0.768-0.862-1.365-1.792-1.792-2.816c-0.427-1.024-0.683-2.133-0.683-3.243c0-2.219,0.939-4.446,2.475-6.059
				c2.389-2.389,6.144-3.157,9.301-1.792c1.024,0.427,1.963,1.024,2.816,1.792c1.536,1.613,2.475,3.84,2.475,6.059
				C273.067,427.776,272.811,428.885,272.384,429.909z M256,392.533c0-4.719,3.823-8.533,8.533-8.533h25.6
				c4.71,0,8.533,3.814,8.533,8.533c0,4.719-3.823,8.533-8.533,8.533h-25.6C259.823,401.067,256,397.252,256,392.533z
				 M324.267,435.2h-25.6c-4.71,0-8.533-3.814-8.533-8.533s3.823-8.533,8.533-8.533h25.6c4.71,0,8.533,3.814,8.533,8.533
				S328.977,435.2,324.267,435.2z M384,435.2h-25.6c-4.71,0-8.533-3.814-8.533-8.533s3.823-8.533,8.533-8.533H384
				c4.71,0,8.533,3.814,8.533,8.533S388.71,435.2,384,435.2z M384,401.067h-59.733c-4.71,0-8.533-3.814-8.533-8.533
				c0-4.719,3.823-8.533,8.533-8.533H384c4.71,0,8.533,3.814,8.533,8.533C392.533,397.252,388.71,401.067,384,401.067z
				 M392.533,358.4H119.467c-4.71,0-8.533-3.814-8.533-8.533s3.823-8.533,8.533-8.533h273.067c4.71,0,8.533,3.814,8.533,8.533
				S397.244,358.4,392.533,358.4z M110.933,273.067c0-4.719,3.823-8.533,8.533-8.533h42.667c4.71,0,8.533,3.814,8.533,8.533
				c0,4.719-3.823,8.533-8.533,8.533h-42.667C114.756,281.6,110.933,277.786,110.933,273.067z M187.733,273.067
				c0-4.719,3.823-8.533,8.533-8.533h8.533c4.71,0,8.533,3.814,8.533,8.533c0,4.719-3.823,8.533-8.533,8.533h-8.533
				C191.556,281.6,187.733,277.786,187.733,273.067z M384,298.667c4.71,0,8.533,3.814,8.533,8.533s-3.823,8.533-8.533,8.533h-59.733
				c-4.71,0-8.533-3.814-8.533-8.533s3.823-8.533,8.533-8.533H384z M332.8,273.067c0-4.719,3.823-8.533,8.533-8.533h8.533
				c4.71,0,8.533,3.814,8.533,8.533c0,4.719-3.823,8.533-8.533,8.533h-8.533C336.623,281.6,332.8,277.786,332.8,273.067z
				 M375.467,273.067c0-1.109,0.256-2.219,0.683-3.243c0.427-1.109,1.024-1.963,1.792-2.816c3.157-3.157,8.875-3.157,12.117,0
				c0.768,0.853,1.365,1.792,1.792,2.816c0.512,1.024,0.683,2.133,0.683,3.243c0,1.109-0.171,2.219-0.683,3.243
				c-0.427,1.024-1.024,1.954-1.792,2.816c-1.621,1.613-3.755,2.475-6.059,2.475c-1.109,0-2.219-0.256-3.243-0.683
				c-1.024-0.427-1.963-1.024-2.816-1.792c-0.768-0.862-1.365-1.792-1.792-2.816C375.723,275.285,375.467,274.176,375.467,273.067z
				 M307.2,281.6h-42.667c-4.71,0-8.533-3.814-8.533-8.533c0-4.719,3.823-8.533,8.533-8.533H307.2c4.71,0,8.533,3.814,8.533,8.533
				C315.733,277.786,311.91,281.6,307.2,281.6z M264.533,298.667h25.6c4.71,0,8.533,3.814,8.533,8.533s-3.823,8.533-8.533,8.533
				h-25.6c-4.71,0-8.533-3.814-8.533-8.533S259.823,298.667,264.533,298.667z M392.533,238.933H119.467
				c-4.71,0-8.533-3.814-8.533-8.533s3.823-8.533,8.533-8.533h273.067c4.71,0,8.533,3.814,8.533,8.533
				S397.244,238.933,392.533,238.933z M401.067,179.2c0,4.719-3.823,8.533-8.533,8.533S384,183.919,384,179.2v-40.866
				c0-18.825-15.309-34.133-34.133-34.133c-18.825,0-34.133,15.309-34.133,34.133V179.2c0,4.719-3.823,8.533-8.533,8.533
				s-8.533-3.814-8.533-8.533v-40.866c0-19.285,10.726-36.096,26.513-44.826c-5.82-6.127-9.446-14.353-9.446-23.45
				c0-18.816,15.309-34.125,34.133-34.125h0.017c9.105,0,17.673,3.55,24.115,9.993C380.45,52.378,384,60.945,384,70.059
				c0,9.097-3.627,17.323-9.446,23.45c15.787,8.73,26.513,25.54,26.513,44.826V179.2z"/>
			<path d="M349.884,53.001h-0.017c-9.412,0-17.067,7.646-17.067,17.058c0,9.412,7.654,17.067,17.067,17.067
				c9.412,0,17.067-7.654,17.067-17.067c0-4.557-1.775-8.841-5.001-12.066C358.716,54.775,354.432,53.001,349.884,53.001z"/>
		</g>
	</g>
</g>
<g>
</g>
<g>
</g>
<g>
</g>
<g>
</g>
<g>
</g>
<g>
</g>
<g>
</g>
<g>
</g>
<g>
</g>
<g>
</g>
<g>
</g>
<g>
</g>
<g>
</g>
<g>
</g>
<g>
</g>
</svg>
