<?xml version="1.0" encoding="iso-8859-1"?>
<!-- Generator: Adobe Illustrator 19.0.0, SVG Export Plug-In . SVG Version: 6.00 Build 0)  -->
<svg version="1.1" id="Layer_1" xmlns="http://www.w3.org/2000/svg" xmlns:xlink="http://www.w3.org/1999/xlink" x="0px" y="0px"
	 viewBox="0 0 512 512" style="enable-background:new 0 0 512 512;" xml:space="preserve">
<g>
	<g>
		<path d="M493.037,357.926c-10.473,0-18.963,8.489-18.963,18.963v31.605c0,10.471,8.49,18.963,18.963,18.963
			S512,418.965,512,408.494v-31.605C512,366.415,503.51,357.926,493.037,357.926z"/>
	</g>
</g>
<g>
	<g>
		<path d="M273.991,315.499c-5.812,1.938-11.865,2.919-17.991,2.919c-6.126,0-12.179-0.981-17.99-2.919l-119.492-39.83v64.874
			c0,8.162,5.224,15.408,12.967,17.988l118.519,39.506c1.946,0.65,3.972,0.975,5.996,0.975s4.05-0.325,5.996-0.975l118.518-39.506
			c7.743-2.581,12.967-9.827,12.967-17.988V275.67L273.991,315.499z"/>
	</g>
</g>
<g>
	<g>
		<path d="M499.033,164.529L261.996,85.517c-1.946-0.649-3.971-0.973-5.996-0.973c-2.025,0-4.051,0.324-5.996,0.973L12.967,164.529
			C5.224,167.109,0,174.356,0,182.517c0,8.163,5.224,15.408,12.967,17.99l105.552,35.184l131.485,43.828
			c1.946,0.649,3.971,0.972,5.996,0.972c2.025,0,4.05-0.325,5.996-0.972l131.485-43.828l80.593-26.864v85.572
			c0,10.471,8.49,18.963,18.963,18.963S512,304.87,512,294.399V182.516C512,174.356,506.776,167.109,499.033,164.529z"/>
	</g>
</g>
<g>
</g>
<g>
</g>
<g>
</g>
<g>
</g>
<g>
</g>
<g>
</g>
<g>
</g>
<g>
</g>
<g>
</g>
<g>
</g>
<g>
</g>
<g>
</g>
<g>
</g>
<g>
</g>
<g>
</g>
</svg>
