<?xml version="1.0" encoding="iso-8859-1"?>
<!-- Generator: Adobe Illustrator 19.0.0, SVG Export Plug-In . SVG Version: 6.00 Build 0)  -->
<svg version="1.1" id="Capa_1" xmlns="http://www.w3.org/2000/svg" xmlns:xlink="http://www.w3.org/1999/xlink" x="0px" y="0px"
	 viewBox="0 0 60 60" style="enable-background:new 0 0 60 60;" xml:space="preserve">
<g>
	<path d="M58.422,45H57V13.067C57,10.824,55.176,9,52.934,9H7.066C4.824,9,3,10.824,3,13.067V45H1.578C0.708,45,0,45.708,0,46.578
		v2.844C0,50.292,0.708,51,1.578,51h56.844C59.292,51,60,50.292,60,49.422v-2.844C60,45.708,59.292,45,58.422,45z M5,13.067
		C5,11.927,5.927,11,7.066,11h45.867C54.073,11,55,11.927,55,13.067V45H35.203l-0.237,0.663C34.905,45.831,34.738,46,34.5,46h-8
		c-0.238,0-0.405-0.169-0.466-0.337L25.797,45H5V13.067z"/>
	<path d="M6,12v32h48V12H6z M20.293,17.293c0.391-0.391,1.023-0.391,1.414,0s0.391,1.023,0,1.414l-3,3
		C18.512,21.902,18.256,22,18,22s-0.512-0.098-0.707-0.293c-0.391-0.391-0.391-1.023,0-1.414L20.293,17.293z M11.293,21.293l4-4
		c0.391-0.391,1.023-0.391,1.414,0s0.391,1.023,0,1.414l-4,4C12.512,22.902,12.256,23,12,23s-0.512-0.098-0.707-0.293
		C10.902,22.316,10.902,21.684,11.293,21.293z M17,23c0,0.26-0.11,0.52-0.29,0.71C16.52,23.89,16.26,24,16,24s-0.521-0.11-0.71-0.29
		C15.109,23.52,15,23.26,15,23c0-0.26,0.109-0.52,0.29-0.71c0.359-0.36,1.05-0.37,1.42,0C16.89,22.48,17,22.74,17,23z
		 M11.293,26.293l2-2c0.391-0.391,1.023-0.391,1.414,0s0.391,1.023,0,1.414l-2,2C12.512,27.902,12.256,28,12,28
		s-0.512-0.098-0.707-0.293C10.902,27.316,10.902,26.684,11.293,26.293z M21.707,23.707l-9,9C12.512,32.902,12.256,33,12,33
		s-0.512-0.098-0.707-0.293c-0.391-0.391-0.391-1.023,0-1.414l9-9c0.391-0.391,1.023-0.391,1.414,0S22.098,23.316,21.707,23.707z
		 M23.71,21.71C23.52,21.89,23.26,22,23,22s-0.521-0.11-0.71-0.29C22.109,21.52,22,21.26,22,21c0-0.26,0.109-0.52,0.29-0.71
		c0.38-0.37,1.05-0.37,1.42,0C23.89,20.48,24,20.73,24,21C24,21.26,23.89,21.52,23.71,21.71z M26.707,18.707l-1,1
		C25.512,19.902,25.256,20,25,20s-0.512-0.098-0.707-0.293c-0.391-0.391-0.391-1.023,0-1.414l1-1c0.391-0.391,1.023-0.391,1.414,0
		S27.098,18.316,26.707,18.707z"/>
</g>
<g>
</g>
<g>
</g>
<g>
</g>
<g>
</g>
<g>
</g>
<g>
</g>
<g>
</g>
<g>
</g>
<g>
</g>
<g>
</g>
<g>
</g>
<g>
</g>
<g>
</g>
<g>
</g>
<g>
</g>
</svg>
