<svg id="Capa_1" data-name="Capa 1" xmlns="http://www.w3.org/2000/svg" viewBox="0 0 31.01 29.01">
  <title>male-face</title>
  <g>
    <path d="M30.93,16C27.24,0,13.75,2.73,13.75,2.73s-1.38-.47.87-1.54C10.52.14,8,3.87,8,3.87s-.87,0-.87-1.54C6.06,2.46,7,5.21,7,5.21s-2.89.07-3.56-.4c-.34,1.07,2.32.86,3.09,1.14-13.49.94-2,19.4-1.95,17.93-2-8.66,2.82-11.81,2.82-11.81s4.09,4.13,7.39,3.76c-3.49-1.34-2.81-2-2.81-2a24,24,0,0,0,11-2.08c2.28.1,4.16,5,4.7,11.14C30.25,21,29.59,16,29.59,16S31.41,17.43,30.93,16Z" transform="translate(0 -1)"/>
    <path d="M21.29,27.25c-.87-.72-2.88-3-5.42-.54-2.46-2.24-4.41,0-5.26.69-3.17,1.46-3.32-.33-3.4-.81-2.39,4.31,5.24,3.32,6.35,3.32a7.47,7.47,0,0,0,2.57-.69,6.6,6.6,0,0,0,2.21.54c1.11,0,8.73,1,6.34-3.32C24.62,26.92,24.46,28.71,21.29,27.25Z" transform="translate(0 -1)"/>
  </g>
</svg>
