<?xml version="1.0" encoding="iso-8859-1"?>
<!-- Generator: Adobe Illustrator 19.0.0, SVG Export Plug-In . SVG Version: 6.00 Build 0)  -->
<svg version="1.1" id="Layer_1" xmlns="http://www.w3.org/2000/svg" xmlns:xlink="http://www.w3.org/1999/xlink" x="0px" y="0px"
	 viewBox="0 0 511.999 511.999" style="enable-background:new 0 0 511.999 511.999;" xml:space="preserve">
<g>
	<g>
		<path d="M475.49,87.776c4.968,0,8.996-4.028,8.996-8.995V43.998c0-4.968-4.028-8.996-8.996-8.996H310.074V8.995
			c0-4.968-4.028-8.995-8.995-8.995H210.92c-4.968,0-8.995,4.028-8.995,8.995v26.007H36.509c-4.968,0-8.996,4.028-8.996,8.996V78.78
			c0,4.968,4.028,8.995,8.996,8.995h19.218v236.909H36.509c-4.968,0-8.996,4.028-8.996,8.995v45.577
			c0,4.968,4.028,8.995,8.996,8.995h125.144l-89.61,109.039c-2.209,2.688-2.67,6.41-1.184,9.554
			c1.487,3.146,4.654,5.153,8.133,5.153h75.309c2.691,0,5.241-1.205,6.949-3.284l94.747-115.29l94.747,115.29
			c1.709,2.079,4.259,3.284,6.949,3.284h75.309c3.479,0,6.647-2.007,8.133-5.153s1.026-6.867-1.184-9.554l-89.608-109.039H475.49
			c4.968,0,8.996-4.028,8.996-8.995V333.68c0-4.968-4.028-8.995-8.996-8.995h-19.218V87.776H475.49z M219.915,17.991h72.168v17.011
			h-72.168V17.991z M150.053,494.009H98.03l86.911-105.755h52.023L150.053,494.009z M413.969,494.009h-52.023l-86.911-105.755
			h52.023L413.969,494.009z M466.494,342.676v27.586H45.505v-27.586H466.494z M406.656,292.285h-68.362
			c-4.968,0-8.995,4.028-8.995,8.995v23.404H73.718V87.776h364.561v236.909h0h-22.628v-23.404
			C415.652,296.313,411.624,292.285,406.656,292.285z M397.662,310.276v14.408H347.29v-14.408H397.662z M45.505,69.785V52.993
			h420.99v16.792H45.505z"/>
	</g>
</g>
<g>
	<g>
		<path d="M218.542,161.125l-45.907-45.891c-1.686-1.686-3.974-2.634-6.359-2.634h-53.005c-4.968,0-8.995,4.028-8.995,8.996v98.912
			c0,4.968,4.028,8.994,8.995,8.994h98.912c4.968,0,8.995-4.028,8.995-8.995v-53.02C221.178,165.1,220.23,162.813,218.542,161.125z
			 M175.271,143.307l15.189,15.184h-15.189V143.307z M203.187,211.511h-80.921v-80.92h35.014v36.896
			c0,4.968,4.028,8.996,8.995,8.996h36.912V211.511z"/>
	</g>
</g>
<g>
	<g>
		<path d="M317.607,112.6h-56.669c-4.968,0-8.995,4.028-8.995,8.996v56.669c0,4.967,4.026,8.994,8.995,8.994h56.669
			c4.968,0,8.995-4.028,8.995-8.996v-56.668C326.602,116.627,322.574,112.6,317.607,112.6z M308.611,169.269h-38.678v-38.678h0
			h38.678V169.269z"/>
	</g>
</g>
<g>
	<g>
		<path d="M407.557,131.274h-56.669c-4.968,0-8.995,4.028-8.995,8.995v56.669c0,4.968,4.028,8.995,8.995,8.995h56.669
			c4.968,0,8.996-4.028,8.996-8.995V140.27C416.552,135.302,412.525,131.274,407.557,131.274z M398.561,187.944h-38.678v-38.678
			h38.678V187.944z"/>
	</g>
</g>
<g>
	<g>
		<path d="M395.863,225.722H251.942c-4.968,0-8.995,4.028-8.995,8.995s4.028,8.995,8.995,8.995h143.921
			c4.968,0,8.996-4.028,8.996-8.995S400.831,225.722,395.863,225.722z"/>
	</g>
</g>
<g>
	<g>
		<path d="M395.863,259.005H251.942c-4.968,0-8.995,4.028-8.995,8.995s4.028,8.995,8.995,8.995h143.921
			c4.968,0,8.996-4.028,8.996-8.995S400.831,259.005,395.863,259.005z"/>
	</g>
</g>
<g>
	<g>
		<path d="M212.183,259.005h-98.912c-4.968,0-8.995,4.028-8.995,8.995s4.028,8.995,8.995,8.995h98.912
			c4.968,0,8.995-4.028,8.995-8.995S217.151,259.005,212.183,259.005z"/>
	</g>
</g>
<g>
</g>
<g>
</g>
<g>
</g>
<g>
</g>
<g>
</g>
<g>
</g>
<g>
</g>
<g>
</g>
<g>
</g>
<g>
</g>
<g>
</g>
<g>
</g>
<g>
</g>
<g>
</g>
<g>
</g>
</svg>
