<svg id="Capa_1" data-name="Capa 1" xmlns="http://www.w3.org/2000/svg" viewBox="0 0 93.56 88.53">
  <title>pi</title>
  <path d="M72.77,74.28C59.4,63.82,68.83,20.84,68.83,20.84H85.17c1.71,0,8.39-1.07,8.39-9.08,0-9.85-8.17-9.24-8.17-9.24H25.24c-9.87,0-18.78,11.3-23.9,19.39C-1.38,26.23.16,27.44,4.84,25.4c16.39-7.18,21-4.59,21-4.59,1.16,5.53,1.54,30.47-2.67,40.32-4.26,9.27-12.13,21-.58,27.92,9,5.11,18.48-5.39,17.55-23.27C39.71,56.31,39,20.84,39,20.84H54c-.47,5.53-3,33.74-.36,50.47C56.46,99.22,86.79,93.8,92.46,78c1.4-4.37,1.07-7.73,0-10.26C90.56,63,87.34,62.78,87.7,65a12.11,12.11,0,0,1-.14,4C86.9,72.82,79.09,78.81,72.77,74.28Z" transform="translate(0 -2.51)"/>
</svg>
