<?xml version="1.0" encoding="iso-8859-1"?>
<!-- Generator: Adobe Illustrator 19.0.0, SVG Export Plug-In . SVG Version: 6.00 Build 0)  -->
<svg version="1.1" id="Capa_1" xmlns="http://www.w3.org/2000/svg" xmlns:xlink="http://www.w3.org/1999/xlink" x="0px" y="0px"
	 viewBox="0 0 54 54" style="enable-background:new 0 0 54 54;" xml:space="preserve">
<g>
	<path d="M51.594,3H2.406C1.079,3,0,4.079,0,5.406v11.188C0,16.733,0.014,16.868,0.037,17h53.926C53.986,16.868,54,16.733,54,16.594
		V5.406C54,4.079,52.921,3,51.594,3z M9,15c-2.206,0-4-1.794-4-4s1.794-4,4-4s4,1.794,4,4S11.206,15,9,15z M31,14
		c-0.552,0-1-0.448-1-1s0.448-1,1-1s1,0.448,1,1S31.552,14,31,14z M33,10c-0.552,0-1-0.448-1-1s0.448-1,1-1s1,0.448,1,1
		S33.552,10,33,10z M35,14c-0.552,0-1-0.448-1-1s0.448-1,1-1s1,0.448,1,1S35.552,14,35,14z M37,10c-0.552,0-1-0.448-1-1s0.448-1,1-1
		s1,0.448,1,1S37.552,10,37,10z M39,14c-0.552,0-1-0.448-1-1s0.448-1,1-1s1,0.448,1,1S39.552,14,39,14z M41,10c-0.552,0-1-0.448-1-1
		s0.448-1,1-1s1,0.448,1,1S41.552,10,41,10z M43,14c-0.552,0-1-0.448-1-1s0.448-1,1-1s1,0.448,1,1S43.552,14,43,14z M45,10
		c-0.552,0-1-0.448-1-1s0.448-1,1-1s1,0.448,1,1S45.552,10,45,10z M47,14c-0.552,0-1-0.448-1-1s0.448-1,1-1s1,0.448,1,1
		S47.552,14,47,14z M49,10c-0.552,0-1-0.448-1-1s0.448-1,1-1s1,0.448,1,1S49.552,10,49,10z"/>
	<circle cx="9" cy="11" r="2"/>
	<circle cx="9" cy="25" r="2"/>
	<path d="M0.037,19C0.014,19.132,0,19.267,0,19.406v11.188C0,30.733,0.014,30.868,0.037,31h53.926
		C53.986,30.868,54,30.733,54,30.594V19.406c0-0.139-0.014-0.274-0.037-0.406H0.037z M9,29c-2.206,0-4-1.794-4-4s1.794-4,4-4
		s4,1.794,4,4S11.206,29,9,29z M31,28c-0.552,0-1-0.448-1-1s0.448-1,1-1s1,0.448,1,1S31.552,28,31,28z M33,24c-0.552,0-1-0.448-1-1
		s0.448-1,1-1s1,0.448,1,1S33.552,24,33,24z M35,28c-0.552,0-1-0.448-1-1s0.448-1,1-1s1,0.448,1,1S35.552,28,35,28z M37,24
		c-0.552,0-1-0.448-1-1s0.448-1,1-1s1,0.448,1,1S37.552,24,37,24z M39,28c-0.552,0-1-0.448-1-1s0.448-1,1-1s1,0.448,1,1
		S39.552,28,39,28z M41,24c-0.552,0-1-0.448-1-1s0.448-1,1-1s1,0.448,1,1S41.552,24,41,24z M43,28c-0.552,0-1-0.448-1-1s0.448-1,1-1
		s1,0.448,1,1S43.552,28,43,28z M45,24c-0.552,0-1-0.448-1-1s0.448-1,1-1s1,0.448,1,1S45.552,24,45,24z M47,28c-0.552,0-1-0.448-1-1
		s0.448-1,1-1s1,0.448,1,1S47.552,28,47,28z M49,24c-0.552,0-1-0.448-1-1s0.448-1,1-1s1,0.448,1,1S49.552,24,49,24z"/>
	<circle cx="9" cy="39" r="2"/>
	<path d="M0.037,33C0.014,33.132,0,33.267,0,33.406v11.188C0,45.921,1.079,47,2.406,47H3c0,2.206,1.794,4,4,4s4-1.794,4-4h32
		c0,2.206,1.794,4,4,4s4-1.794,4-4h0.594C52.921,47,54,45.921,54,44.594V33.406c0-0.139-0.014-0.274-0.037-0.406H0.037z M49,36
		c0.552,0,1,0.448,1,1s-0.448,1-1,1s-1-0.448-1-1S48.448,36,49,36z M47,40c0.552,0,1,0.448,1,1s-0.448,1-1,1s-1-0.448-1-1
		S46.448,40,47,40z M45,36c0.552,0,1,0.448,1,1s-0.448,1-1,1s-1-0.448-1-1S44.448,36,45,36z M7,49c-1.103,0-2-0.897-2-2h4
		C9,48.103,8.103,49,7,49z M9,43c-2.206,0-4-1.794-4-4s1.794-4,4-4s4,1.794,4,4S11.206,43,9,43z M31,42c-0.552,0-1-0.448-1-1
		s0.448-1,1-1s1,0.448,1,1S31.552,42,31,42z M33,38c-0.552,0-1-0.448-1-1s0.448-1,1-1s1,0.448,1,1S33.552,38,33,38z M35,42
		c-0.552,0-1-0.448-1-1s0.448-1,1-1s1,0.448,1,1S35.552,42,35,42z M37,38c-0.552,0-1-0.448-1-1s0.448-1,1-1s1,0.448,1,1
		S37.552,38,37,38z M39,42c-0.552,0-1-0.448-1-1s0.448-1,1-1s1,0.448,1,1S39.552,42,39,42z M41,38c-0.552,0-1-0.448-1-1s0.448-1,1-1
		s1,0.448,1,1S41.552,38,41,38z M42,41c0-0.552,0.448-1,1-1s1,0.448,1,1s-0.448,1-1,1S42,41.552,42,41z M47,49c-1.103,0-2-0.897-2-2
		h4C49,48.103,48.103,49,47,49z"/>
</g>
<g>
</g>
<g>
</g>
<g>
</g>
<g>
</g>
<g>
</g>
<g>
</g>
<g>
</g>
<g>
</g>
<g>
</g>
<g>
</g>
<g>
</g>
<g>
</g>
<g>
</g>
<g>
</g>
<g>
</g>
</svg>
