<?xml version="1.0" encoding="iso-8859-1"?>
<!-- Generator: Adobe Illustrator 19.0.0, SVG Export Plug-In . SVG Version: 6.00 Build 0)  -->
<svg version="1.1" id="Layer_1" xmlns="http://www.w3.org/2000/svg" xmlns:xlink="http://www.w3.org/1999/xlink" x="0px" y="0px"
	 viewBox="0 0 512 512" style="enable-background:new 0 0 512 512;" xml:space="preserve">
<g transform="translate(0 -1)">
	<g>
		<g>
			<path d="M408.269,214.333h-15.735v-82.825c0-24.909-20.267-45.175-45.175-45.175h-1.084l-5.837-10.18
				c-5.478-9.557-8.38-20.216-8.38-30.839C332.058,20.883,309.811,1,282.462,1h-87.057c-27.349,0-49.596,19.883-49.596,44.314
				c0,10.624-2.901,21.282-8.38,30.839l-5.837,10.18h-1.084c-24.909,0-45.175,20.267-45.175,45.175v250.982
				c0,24.909,20.267,45.175,45.175,45.175h1.084l5.837,10.18c5.478,9.549,8.38,20.207,8.38,30.839
				c0,24.431,22.246,44.314,49.596,44.314H230.4v-8.533V410.6V299.667c0-9.318,3.089-18.253,8.533-25.515v42.581
				c0,4.719,3.814,8.533,8.533,8.533h51.2c4.719,0,8.533-3.814,8.533-8.533v-42.581c5.444,7.262,8.533,16.196,8.533,25.515v204.8
				c0,4.719,3.814,8.533,8.533,8.533s8.533-3.814,8.533-8.533v-76.8h14.558c24.909,0,45.175-20.267,45.175-45.175v-82.825h15.735
				c10.138,0,18.398-8.26,18.398-18.398v-48.538C426.667,222.594,418.406,214.333,408.269,214.333z M375.467,214.333v85.333v82.825
				c0,15.497-12.612,28.109-28.109,28.109H332.8v-75.81c2.423-2.389,4.77-4.881,6.921-7.552c2.944-3.669,2.355-9.045-1.323-11.998
				c-1.647-1.314-3.635-1.826-5.598-1.758v-13.815c0-19.78-10.01-38.204-26.266-49.271c-3.089-15.667-16.905-27.529-33.468-27.529
				c-16.563,0-30.379,11.861-33.468,27.529c-16.256,11.068-26.266,29.491-26.266,49.271v13.807c-1.954-0.06-3.942,0.452-5.598,1.766
				c-3.678,2.953-4.267,8.329-1.323,11.998c2.15,2.671,4.497,5.163,6.921,7.552v75.81h-82.825
				c-15.497,0-28.109-12.612-28.109-28.109V131.509c0-15.505,12.612-28.109,28.109-28.109h216.849
				c15.497,0,28.109,12.604,28.109,28.109V214.333z"/>
			<path d="M128,171.666c2.185,0,4.369-0.836,6.033-2.5l34.133-34.133c3.337-3.337,3.337-8.73,0-12.066
				c-3.336-3.337-8.73-3.337-12.066,0l-34.133,34.133c-3.337,3.336-3.337,8.73,0,12.066C123.631,170.83,125.815,171.666,128,171.666
				z"/>
			<path d="M128,214.332c2.185,0,4.369-0.836,6.033-2.5l17.067-17.067c3.337-3.337,3.337-8.73,0-12.066s-8.73-3.337-12.066,0
				l-17.067,17.067c-3.337,3.337-3.337,8.73,0,12.066C123.631,213.496,125.815,214.332,128,214.332z"/>
			<path d="M156.075,165.608c-1.621,1.613-2.475,3.84-2.475,6.059c0,2.219,0.853,4.429,2.475,6.059
				c1.613,1.536,3.746,2.475,6.059,2.475c2.219,0,4.429-0.939,6.059-2.475c1.536-1.63,2.475-3.84,2.475-6.059
				c0-2.219-0.939-4.446-2.475-6.059C165.035,162.451,159.232,162.451,156.075,165.608z"/>
			<path d="M173.167,160.633c1.664,1.664,3.849,2.5,6.033,2.5c2.185,0,4.369-0.836,6.033-2.5l25.6-25.6
				c3.337-3.337,3.337-8.73,0-12.066s-8.73-3.337-12.066,0l-25.6,25.6C169.83,151.903,169.83,157.297,173.167,160.633z"/>
			<path d="M210.833,165.633c-3.337-3.337-8.73-3.337-12.066,0l-76.8,76.8c-3.337,3.337-3.337,8.73,0,12.066
				c1.664,1.664,3.849,2.5,6.033,2.5c2.185,0,4.369-0.836,6.033-2.5l76.8-76.8C214.17,174.362,214.17,168.969,210.833,165.633z"/>
			<path d="M215.808,160.658c1.613,1.536,3.746,2.475,6.059,2.475c2.219,0,4.429-0.939,6.059-2.475
				c1.536-1.621,2.475-3.755,2.475-6.059s-0.939-4.437-2.475-6.059c-3.157-3.157-8.96-3.157-12.117,0
				c-1.544,1.621-2.475,3.84-2.475,6.059C213.333,156.903,214.263,159.037,215.808,160.658z"/>
			<path d="M238.933,146.066c2.185,0,4.369-0.836,6.033-2.5l8.533-8.533c3.336-3.337,3.336-8.73,0-12.066
				c-3.337-3.337-8.73-3.337-12.066,0l-8.533,8.533c-3.337,3.337-3.337,8.73,0,12.066
				C234.564,145.23,236.749,146.066,238.933,146.066z"/>
			<path d="M281.6,461.799c4.719,0,8.533-3.814,8.533-8.533s-3.814-8.533-8.533-8.533h-17.067c-4.719,0-8.533,3.814-8.533,8.533
				s3.814,8.533,8.533,8.533H281.6z"/>
			<path d="M290.133,478.866H256c-4.719,0-8.533,3.814-8.533,8.533c0,4.719,3.814,8.533,8.533,8.533h34.133
				c4.719,0,8.533-3.814,8.533-8.533C298.667,482.68,294.852,478.866,290.133,478.866z"/>
			<path d="M204.8,273.924l0.009-1.22c0.077-4.702-3.678-8.585-8.388-8.67h-0.145c-4.651,0-8.457,3.721-8.533,8.388l-0.009,1.647
				c0,9.344,1.51,18.526,4.48,27.29c1.212,3.558,4.531,5.794,8.09,5.794c0.905,0,1.835-0.145,2.739-0.452
				c4.463-1.519,6.861-6.366,5.342-10.829C206.012,288.883,204.8,281.544,204.8,273.924z"/>
			<path d="M349.7,264.183c-4.71,0.094-8.457,3.985-8.371,8.695l0.008,1.186c0,7.526-1.229,14.908-3.635,21.939
				c-1.527,4.463,0.845,9.318,5.308,10.846c0.913,0.307,1.852,0.461,2.765,0.461c3.55,0,6.861-2.227,8.073-5.769
				c3.021-8.823,4.557-18.065,4.557-27.477l-0.009-1.51C358.302,267.843,354.095,264.319,349.7,264.183z"/>
			<path d="M344.9,255.358c1.007,0,2.031-0.179,3.021-0.555c4.412-1.673,6.63-6.596,4.958-10.999
				c-3.499-9.216-8.525-17.698-14.95-25.208c-3.081-3.593-8.465-3.977-12.041-0.93c-3.575,3.063-3.994,8.448-0.93,12.032
				c5.154,6.008,9.165,12.792,11.964,20.147C338.219,253.259,341.461,255.358,344.9,255.358z"/>
			<path d="M220.349,217.57c-3.575-3.063-8.96-2.654-12.041,0.905c-6.443,7.501-11.494,15.966-15.002,25.156
				c-1.673,4.403,0.538,9.336,4.932,11.017c1.007,0.384,2.031,0.563,3.046,0.563c3.43,0,6.673-2.091,7.97-5.495
				c2.799-7.339,6.835-14.106,12.006-20.105C224.325,226.035,223.916,220.642,220.349,217.57z"/>
			<path d="M315.359,199.933c-8.593-4.907-17.869-8.252-27.571-9.933c-4.634-0.742-9.071,2.304-9.873,6.946
				c-0.802,4.642,2.313,9.062,6.955,9.873c7.748,1.34,15.155,4.011,22.025,7.927c1.331,0.768,2.79,1.126,4.224,1.126
				c2.97,0,5.837-1.545,7.415-4.301C320.871,207.485,319.446,202.262,315.359,199.933z"/>
			<path d="M258.516,189.966c-9.719,1.664-19.004,4.983-27.597,9.873c-4.104,2.33-5.538,7.535-3.2,11.639
				c1.562,2.765,4.454,4.309,7.424,4.309c1.425,0,2.876-0.358,4.207-1.109c6.878-3.908,14.293-6.562,22.05-7.893
				c4.642-0.794,7.765-5.214,6.963-9.856C267.579,192.287,263.159,189.198,258.516,189.966z"/>
		</g>
	</g>
</g>
<g>
</g>
<g>
</g>
<g>
</g>
<g>
</g>
<g>
</g>
<g>
</g>
<g>
</g>
<g>
</g>
<g>
</g>
<g>
</g>
<g>
</g>
<g>
</g>
<g>
</g>
<g>
</g>
<g>
</g>
</svg>
