<?xml version="1.0" encoding="iso-8859-1"?>
<!-- Generator: Adobe Illustrator 19.0.0, SVG Export Plug-In . SVG Version: 6.00 Build 0)  -->
<svg version="1.1" id="Layer_1" xmlns="http://www.w3.org/2000/svg" xmlns:xlink="http://www.w3.org/1999/xlink" x="0px" y="0px"
	 viewBox="0 0 511.996 511.996" style="enable-background:new 0 0 511.996 511.996;" xml:space="preserve">
<g>
	<g>
		<path d="M244.606,137.494c-26.153,0-47.432,21.278-47.432,47.431c0,26.153,21.278,47.432,47.432,47.432
			c26.154,0,47.431-21.278,47.431-47.432C292.036,158.77,270.759,137.494,244.606,137.494z M244.606,214.877
			c-16.515,0-29.953-13.437-29.953-29.953c0-16.516,13.437-29.952,29.953-29.952c16.515,0,29.952,13.437,29.952,29.952
			C274.557,201.44,261.12,214.877,244.606,214.877z"/>
	</g>
</g>
<g>
	<g>
		<path d="M452.072,123.043c-17.141,0-31.087,13.946-31.087,31.087c0,17.141,13.946,31.087,31.087,31.087
			s31.087-13.946,31.087-31.087C483.158,136.989,469.212,123.043,452.072,123.043z M452.072,167.738
			c-7.503,0-13.608-6.105-13.608-13.608s6.104-13.608,13.608-13.608s13.608,6.105,13.608,13.608
			C465.679,161.634,459.575,167.738,452.072,167.738z"/>
	</g>
</g>
<g>
	<g>
		<path d="M476.794,39.399l-127.09-0.005c-19.411,0-35.203,15.797-35.203,35.214v40.122h-52.404c-0.012,0-0.022-0.001-0.034-0.001
			H71.242c-0.022,0-0.044,0.001-0.068,0.001H37.35C16.755,114.73,0,131.486,0,152.08v224.414c0,20.595,16.755,37.35,37.35,37.35
			h133.817l-11.799,47.928c-0.01,0.041-0.014,0.083-0.023,0.124c-0.048,0.21-0.086,0.423-0.119,0.639
			c-0.016,0.104-0.035,0.207-0.048,0.312c-0.024,0.207-0.035,0.418-0.044,0.632c-0.005,0.107-0.015,0.216-0.016,0.324
			c0,0.021-0.003,0.041-0.003,0.061c0,0.261,0.016,0.519,0.038,0.774c0.003,0.033,0.001,0.066,0.005,0.099
			c0.031,0.32,0.083,0.636,0.148,0.946c0.008,0.04,0.021,0.078,0.03,0.119c0.061,0.267,0.132,0.53,0.216,0.787
			c0.024,0.073,0.054,0.146,0.08,0.219c0.079,0.22,0.164,0.437,0.26,0.649c0.04,0.087,0.083,0.174,0.126,0.26
			c0.096,0.193,0.197,0.383,0.305,0.568c0.054,0.091,0.107,0.181,0.164,0.27c0.114,0.179,0.237,0.352,0.364,0.522
			c0.043,0.058,0.079,0.121,0.125,0.179c0.02,0.024,0.043,0.047,0.063,0.071c0.154,0.192,0.317,0.374,0.486,0.552
			c0.045,0.048,0.086,0.099,0.133,0.146c0.217,0.218,0.444,0.423,0.683,0.616c0.063,0.051,0.129,0.096,0.193,0.146
			c0.182,0.14,0.367,0.275,0.559,0.401c0.083,0.054,0.169,0.103,0.254,0.154c0.183,0.111,0.369,0.217,0.562,0.313
			c0.089,0.045,0.178,0.087,0.268,0.129c0.197,0.092,0.396,0.175,0.601,0.252c0.09,0.034,0.179,0.068,0.269,0.099
			c0.212,0.072,0.428,0.133,0.646,0.189c0.089,0.023,0.175,0.049,0.263,0.068c0.231,0.051,0.465,0.09,0.703,0.121
			c0.079,0.01,0.157,0.027,0.238,0.036c0.315,0.034,0.634,0.055,0.957,0.055h105.359h69.171c4.828,0,8.74-3.913,8.74-8.74
			c0-4.826-3.912-8.739-8.74-8.739h-58.021l10.161-41.278l152.849-0.005c18.427,0,33.42-14.986,33.42-33.408v-75.6
			c17.535-1.994,31.204-16.913,31.204-34.972V74.605C512,55.191,496.206,39.399,476.794,39.399z M359.942,74.605
			c0-9.774,7.952-17.726,17.727-17.726h99.125c9.775-0.001,17.727,7.951,17.727,17.726v10.303H359.942V74.605z M359.941,102.385
			H494.52v138.593h-4.179l-43.979-48.396c-1.657-1.822-4.006-2.862-6.468-2.862s-4.811,1.039-6.468,2.862l-12.486,13.738
			l-31.006-34.107c-1.656-1.821-4.005-2.861-6.467-2.861c-2.461,0-4.81,1.039-6.466,2.862l-17.059,18.768V102.385z M466.723,240.978
			h-14.276l-19.695-21.664l7.142-7.859L466.723,240.978z M359.943,216.271l0.347,0.315l23.179-25.501l45.358,49.893h-68.884V216.271
			z M331.98,74.609c0-8.911,6.609-16.288,15.175-17.53c-2.978,5.166-4.693,11.147-4.693,17.527V269.86
			c0,6.375,1.712,12.355,4.688,17.518c-8.564-1.245-15.171-8.615-15.171-17.518V74.609z M55.301,311.432l70.306-72.26
			l93.467,102.804H55.301V311.432z M202.523,297.776l20.999-23.107l61.163,67.305h-41.991v0.001L202.523,297.776z M41.875,396.364
			H37.35c-10.957,0.001-19.871-8.913-19.871-19.87V152.08c0-10.957,8.914-19.871,19.871-19.871h4.525
			c-2.583,4.74-4.053,10.172-4.053,15.938V380.43C37.822,386.196,39.291,391.625,41.875,396.364z M266.364,455.122h-87.358
			l10.161-41.278h87.358L266.364,455.122z M463.317,380.432c0,8.783-7.151,15.929-15.941,15.929H71.242
			c-8.79,0-15.941-7.145-15.941-15.929v-20.977h408.016V380.432z M463.317,341.976H308.303l-78.312-86.178
			c-1.657-1.822-4.005-2.862-6.468-2.862c-2.462,0-4.811,1.039-6.467,2.862l-26.344,28.987l-58.423-64.245
			c-1.622-1.783-3.908-2.818-6.318-2.858c-2.434-0.008-4.731,0.916-6.411,2.644l-64.258,66.043V148.148
			c0-8.778,7.133-15.92,15.907-15.938h243.293V269.86c0,19.41,15.792,35.202,35.203,35.202l113.613,0.003V341.976z M494.521,269.859
			c0,9.775-7.952,17.727-17.727,17.727l-99.193-0.003c-9.744-0.037-17.66-7.972-17.66-17.724v-11.402h134.579V269.859z"/>
	</g>
</g>
<g>
</g>
<g>
</g>
<g>
</g>
<g>
</g>
<g>
</g>
<g>
</g>
<g>
</g>
<g>
</g>
<g>
</g>
<g>
</g>
<g>
</g>
<g>
</g>
<g>
</g>
<g>
</g>
<g>
</g>
</svg>
