<?xml version="1.0" standalone="no"?>
<!DOCTYPE svg PUBLIC "-//W3C//DTD SVG 20010904//EN"
 "http://www.w3.org/TR/2001/REC-SVG-20010904/DTD/svg10.dtd">
<svg version="1.0" xmlns="http://www.w3.org/2000/svg"
 width="260.000000pt" height="260.000000pt" viewBox="0 0 260.000000 260.000000"
 preserveAspectRatio="xMidYMid meet">
<metadata>
Created by potrace 1.11, written by Peter Selinger 2001-2013
</metadata>
<g transform="translate(0.000000,260.000000) scale(0.100000,-0.100000)"
fill="#000000" stroke="none">
<path d="M1310 2047 c0 -23 -47 -56 -89 -62 -213 -32 -452 -124 -563 -216 -26
-21 -51 -39 -56 -39 -6 0 -55 -48 -109 -106 -102 -111 -120 -122 -332 -215
l-34 -15 -2 -605 c-2 -696 -5 -672 79 -704 34 -13 58 -16 93 -10 27 4 172 10
323 14 l275 6 30 55 c25 46 30 66 30 125 0 80 -17 122 -74 185 l-36 41 -47
-16 c-48 -17 -48 -17 -48 -62 0 -45 0 -46 -20 -28 -16 15 -18 26 -13 80 l6 63
-45 43 c-39 38 -50 58 -78 144 -37 114 -66 166 -109 191 -60 36 -64 170 -7
281 74 145 103 185 173 230 l68 45 85 -6 c47 -2 126 -10 175 -17 138 -18 162
-16 196 17 16 15 29 33 29 40 0 27 -156 93 -317 134 -42 10 -43 12 -43 51 0
33 6 47 33 73 36 37 97 53 234 61 93 5 340 48 400 69 44 15 83 37 83 47 0 3
-30 29 -66 58 -64 52 -67 53 -145 58 -67 5 -79 4 -79 -10z"/>
<path d="M2085 1461 c-52 -23 -63 -50 -66 -153 -1 -80 0 -86 42 -170 24 -49
49 -88 56 -88 21 0 103 43 103 54 0 6 -7 46 -15 89 -8 43 -15 106 -15 140 0
63 -30 147 -53 147 -7 0 -30 -9 -52 -19z"/>
<path d="M1350 1415 c0 -20 -5 -25 -24 -25 -14 0 -62 -18 -108 -41 -68 -33
-91 -40 -126 -36 -42 5 -44 3 -71 -40 l-28 -44 25 -50 c13 -28 45 -72 71 -97
62 -63 190 -176 202 -180 5 -2 40 21 78 51 49 40 70 64 74 86 5 23 16 36 42
48 31 15 35 21 35 54 0 28 -5 39 -18 43 -45 15 -66 54 -77 142 -10 84 -11 86
-42 99 -32 14 -33 13 -33 -10z"/>
<path d="M1674 1134 c-11 -58 2 -140 31 -193 15 -27 65 -90 112 -140 l84 -90
-26 -100 c-14 -56 -25 -128 -25 -165 0 -55 -4 -69 -26 -95 -33 -40 -68 -41
-88 -3 -18 35 -93 67 -136 58 -16 -3 -50 -21 -75 -41 -26 -19 -52 -35 -59 -35
-7 0 -44 -25 -82 -55 -38 -30 -89 -63 -114 -72 -54 -20 -60 -27 -60 -76 l0
-37 321 2 322 3 113 205 c89 161 121 210 149 229 33 23 35 27 35 81 0 67 -13
83 -83 101 l-47 13 0 48 c0 50 -1 51 -52 62 -50 11 -96 64 -154 177 -36 71
-67 118 -88 134 -18 14 -36 25 -39 25 -3 0 -9 -16 -13 -36z"/>
<path d="M2187 779 c6 -22 23 -26 23 -5 0 8 -6 16 -14 19 -10 4 -12 0 -9 -14z"/>
</g>
</svg>
